<svg width="98" height="63" viewBox="0 0 98 63" fill="none" xmlns="http://www.w3.org/2000/svg">
<g opacity="0.7">
<circle cx="4" cy="22" r="4" transform="rotate(-90 4 22)" fill="#F2BDBE"/>
<circle cx="58" cy="22" r="4" transform="rotate(-90 58 22)" fill="#F2BDBE"/>
<circle cx="22" cy="22" r="4" transform="rotate(-90 22 22)" fill="#3476FF"/>
<circle cx="76" cy="22" r="4" transform="rotate(-90 76 22)" fill="#3476FF"/>
<circle cx="40" cy="22" r="4" transform="rotate(-90 40 22)" fill="#3476FF"/>
<circle cx="94" cy="22" r="4" transform="rotate(-90 94 22)" fill="#3476FF"/>
<circle cx="40" cy="40" r="4" transform="rotate(-90 40 40)" fill="#3476FF"/>
<circle cx="94" cy="40" r="4" transform="rotate(-90 94 40)" fill="#3476FF"/>
<circle cx="40" cy="58.4474" r="4" transform="rotate(-90 40 58.4474)" fill="#3476FF"/>
<circle cx="94" cy="58.4474" r="4" transform="rotate(-90 94 58.4474)" fill="#3476FF"/>
<circle cx="4" cy="4" r="4" transform="rotate(-90 4 4)" fill="#3F536C"/>
<circle cx="58" cy="4" r="4" transform="rotate(-90 58 4)" fill="#3F536C"/>
<circle cx="22.1533" cy="40.4474" r="4" transform="rotate(-90 22.1533 40.4474)" fill="#3F536C"/>
<circle cx="76.1533" cy="40.4474" r="4" transform="rotate(-90 76.1533 40.4474)" fill="#3F536C"/>
<circle cx="22.1533" cy="58.8948" r="4" transform="rotate(-90 22.1533 58.8948)" fill="#3F536C"/>
<circle cx="76.1533" cy="58.8948" r="4" transform="rotate(-90 76.1533 58.8948)" fill="#3F536C"/>
<circle cx="22" cy="4" r="4" transform="rotate(-90 22 4)" fill="#F2BDBE"/>
<circle cx="76" cy="4" r="4" transform="rotate(-90 76 4)" fill="#F2BDBE"/>
<circle cx="4.15332" cy="40.4474" r="4" transform="rotate(-90 4.15332 40.4474)" fill="#3476FF"/>
<circle cx="58.1533" cy="40.4474" r="4" transform="rotate(-90 58.1533 40.4474)" fill="#3476FF"/>
<circle cx="40" cy="4" r="4" transform="rotate(-90 40 4)" fill="#F2BDBE"/>
<circle cx="94" cy="4" r="4" transform="rotate(-90 94 4)" fill="#F2BDBE"/>
<circle cx="4.15332" cy="58.4474" r="4" transform="rotate(-90 4.15332 58.4474)" fill="#F2BDBE"/>
<circle cx="58.1533" cy="58.4474" r="4" transform="rotate(-90 58.1533 58.4474)" fill="#F2BDBE"/>
</g>
</svg>
