<svg width="98" height="136" viewBox="0 0 98 136" fill="none" xmlns="http://www.w3.org/2000/svg">
<g opacity="0.7">
<circle cx="4" cy="95" r="4" transform="rotate(-90 4 95)" fill="#F2BDBE"/>
<circle cx="58" cy="95" r="4" transform="rotate(-90 58 95)" fill="#3476FF"/>
<circle cx="22" cy="95" r="4" transform="rotate(-90 22 95)" fill="#33DBDB"/>
<circle cx="76" cy="95" r="4" transform="rotate(-90 76 95)" fill="#F2BDBE"/>
<circle cx="40" cy="95" r="4" transform="rotate(-90 40 95)" fill="#3476FF"/>
<circle cx="94" cy="95" r="4" transform="rotate(-90 94 95)" fill="#3476FF"/>
<circle cx="40" cy="113" r="4" transform="rotate(-90 40 113)" fill="#3476FF"/>
<circle cx="94" cy="113" r="4" transform="rotate(-90 94 113)" fill="#3476FF"/>
<circle cx="40" cy="131.447" r="4" transform="rotate(-90 40 131.447)" fill="#3476FF"/>
<circle cx="94.5" cy="131.5" r="2.5" transform="rotate(-90 94.5 131.5)" fill="#3476FF"/>
<circle cx="4" cy="77" r="4" transform="rotate(-90 4 77)" fill="#3476FF"/>
<circle cx="58" cy="77" r="4" transform="rotate(-90 58 77)" fill="#3476FF"/>
<circle cx="22.1533" cy="113.447" r="4" transform="rotate(-90 22.1533 113.447)" fill="#3F536C"/>
<circle cx="76.1533" cy="113.447" r="4" transform="rotate(-90 76.1533 113.447)" fill="#3F536C"/>
<circle cx="22.1533" cy="131.895" r="4" transform="rotate(-90 22.1533 131.895)" fill="#3F536C"/>
<circle cx="76.1533" cy="131.895" r="4" transform="rotate(-90 76.1533 131.895)" fill="#3F536C"/>
<circle cx="22" cy="77" r="4" transform="rotate(-90 22 77)" fill="#3476FF"/>
<circle cx="76" cy="77" r="4" transform="rotate(-90 76 77)" fill="#3476FF"/>
<circle cx="4.15332" cy="113.447" r="4" transform="rotate(-90 4.15332 113.447)" fill="#3476FF"/>
<circle cx="58.1533" cy="113.447" r="4" transform="rotate(-90 58.1533 113.447)" fill="#3476FF"/>
<circle cx="40" cy="77" r="4" transform="rotate(-90 40 77)" fill="#FFC04E"/>
<circle cx="94" cy="77" r="4" transform="rotate(-90 94 77)" fill="#F2BDBE"/>
<circle cx="4.5" cy="131.5" r="2.5" transform="rotate(-90 4.5 131.5)" fill="#F2BDBE"/>
<circle cx="58.1533" cy="131.447" r="4" transform="rotate(-90 58.1533 131.447)" fill="#F2BDBE"/>
</g>
<g opacity="0.7">
<circle cx="4" cy="22" r="4" transform="rotate(-90 4 22)" fill="#F2BDBE"/>
<circle cx="58" cy="22" r="4" transform="rotate(-90 58 22)" fill="#3476FF"/>
<circle cx="22" cy="22" r="4" transform="rotate(-90 22 22)" fill="#33DBDB"/>
<circle cx="76" cy="22" r="4" transform="rotate(-90 76 22)" fill="#F2BDBE"/>
<circle cx="40" cy="22" r="4" transform="rotate(-90 40 22)" fill="#3476FF"/>
<circle cx="94" cy="22" r="4" transform="rotate(-90 94 22)" fill="#3476FF"/>
<circle cx="40" cy="40" r="4" transform="rotate(-90 40 40)" fill="#3476FF"/>
<circle cx="94" cy="40" r="4" transform="rotate(-90 94 40)" fill="#3476FF"/>
<circle cx="40" cy="58.4474" r="4" transform="rotate(-90 40 58.4474)" fill="#3476FF"/>
<circle cx="94" cy="58.4474" r="4" transform="rotate(-90 94 58.4474)" fill="#3476FF"/>
<circle cx="4" cy="4" r="4" transform="rotate(-90 4 4)" fill="#3476FF"/>
<circle cx="58" cy="4" r="4" transform="rotate(-90 58 4)" fill="#3476FF"/>
<circle cx="22.1533" cy="40.4474" r="4" transform="rotate(-90 22.1533 40.4474)" fill="#3F536C"/>
<circle cx="76.1533" cy="40.4474" r="4" transform="rotate(-90 76.1533 40.4474)" fill="#3F536C"/>
<circle cx="22.1533" cy="58.8948" r="4" transform="rotate(-90 22.1533 58.8948)" fill="#3F536C"/>
<circle cx="76.1533" cy="58.8948" r="4" transform="rotate(-90 76.1533 58.8948)" fill="#3F536C"/>
<circle cx="22" cy="4" r="4" transform="rotate(-90 22 4)" fill="#3476FF"/>
<circle cx="76" cy="4" r="4" transform="rotate(-90 76 4)" fill="#3476FF"/>
<circle cx="4.15332" cy="40.4474" r="4" transform="rotate(-90 4.15332 40.4474)" fill="#3476FF"/>
<circle cx="58.1533" cy="40.4474" r="4" transform="rotate(-90 58.1533 40.4474)" fill="#3476FF"/>
<circle cx="40" cy="4" r="4" transform="rotate(-90 40 4)" fill="#FFC04E"/>
<circle cx="94.5" cy="4.5" r="2.5" transform="rotate(-90 94.5 4.5)" fill="#F2BDBE"/>
<circle cx="4.15332" cy="58.4474" r="4" transform="rotate(-90 4.15332 58.4474)" fill="#F2BDBE"/>
<circle cx="58.1533" cy="58.4474" r="4" transform="rotate(-90 58.1533 58.4474)" fill="#F2BDBE"/>
</g>
</svg>
